<svg xmlns="http://www.w3.org/2000/svg" width="29" height="28" viewBox="0 0 29 28" fill="none"><path d="M21.146 2.236a7.94 7.94 0 0 0-3.859 1.063A7.6 7.6 0 0 0 14.5 6.086a7.6 7.6 0 0 0-2.787-2.787 7.94 7.94 0 0 0-3.859-1.063A8.34 8.34 0 0 0 2.17 4.784 7.78 7.78 0 0 0 0 10.461c0 5.305 5.783 11.099 10.633 15.027a6.14 6.14 0 0 0 3.867 1.36 6.14 6.14 0 0 0 3.867-1.36C23.217 21.56 29 15.766 29 10.46a7.78 7.78 0 0 0-2.17-5.677 8.35 8.35 0 0 0-5.684-2.548m-4.332 21.467a3.67 3.67 0 0 1-2.314.815 3.67 3.67 0 0 1-2.314-.815c-6.208-5.03-9.77-9.855-9.77-13.242a5.48 5.48 0 0 1 1.462-4.028A5.88 5.88 0 0 1 7.854 4.57c1.528.09 2.958.76 3.976 1.864a5.48 5.48 0 0 1 1.462 4.028c0 .31.127.606.354.825s.534.342.854.342.628-.123.854-.342c.227-.219.354-.516.354-.825a5.48 5.48 0 0 1 1.462-4.028 5.88 5.88 0 0 1 3.976-1.864 5.88 5.88 0 0 1 3.976 1.864 5.48 5.48 0 0 1 1.461 4.028c0 3.387-3.56 8.212-9.77 13.237z" fill="#696969"/></svg>