<svg width="48" height="48" viewBox="0 0 48 48" fill="none"><g fill-rule="evenodd" clip-rule="evenodd" clip-path="url(#a)"><path d="M1.153 5.39C.027 7.558.027 10.405.027 16.1v15.8c0 5.695 0 8.542 1.126 10.71a10 10 0 0 0 4.265 4.264C7.585 48 10.432 48 16.128 48h15.8c5.694 0 8.542 0 10.71-1.126a10 10 0 0 0 4.264-4.264c1.125-2.168 1.125-5.015 1.125-10.71V16.1c0-5.695 0-8.542-1.126-10.71a10 10 0 0 0-4.264-4.264C40.47 0 37.622 0 31.927 0h-15.8c-5.695 0-8.542 0-10.71 1.126A10 10 0 0 0 1.154 5.39m15.65 1.26c1.863-.084 2.457-.105 7.198-.105h-.006c4.742 0 5.335.021 7.196.106 1.859.085 3.128.38 4.24.81a8.5 8.5 0 0 1 3.091 2.014 8.6 8.6 0 0 1 2.014 3.092c.43 1.11.724 2.378.811 4.236.084 1.862.106 2.457.106 7.197s-.022 5.334-.106 7.196c-.087 1.857-.381 3.126-.81 4.236a8.6 8.6 0 0 1-2.015 3.092 8.5 8.5 0 0 1-3.09 2.014c-1.11.432-2.38.726-4.238.811-1.862.085-2.455.106-7.195.106s-5.335-.021-7.197-.106c-1.857-.085-3.126-.38-4.237-.81a8.55 8.55 0 0 1-3.09-2.015 8.55 8.55 0 0 1-2.013-3.092c-.432-1.11-.726-2.379-.811-4.237-.085-1.861-.106-2.455-.106-7.195s.022-5.336.105-7.197c.084-1.858.378-3.127.811-4.237a8.6 8.6 0 0 1 2.015-3.091 8.55 8.55 0 0 1 3.092-2.013c1.11-.432 2.378-.726 4.236-.811m6.616 3.04h-.984v-.003c-3.253.003-3.877.025-5.487.098-1.702.078-2.626.362-3.241.602a5.4 5.4 0 0 0-2.007 1.306 5.4 5.4 0 0 0-1.307 2.007c-.239.615-.523 1.539-.6 3.24-.084 1.84-.101 2.39-.101 7.052 0 4.66.017 5.214.1 7.054.078 1.701.363 2.625.601 3.24a5.4 5.4 0 0 0 1.307 2.006 5.4 5.4 0 0 0 2.007 1.305c.615.239 1.539.523 3.24.602 1.84.084 2.393.102 7.054.102 4.66 0 5.213-.018 7.052-.102 1.702-.078 2.627-.361 3.241-.602a5.4 5.4 0 0 0 2.006-1.305c.61-.61.99-1.19 1.306-2.005.239-.615.523-1.538.601-3.24.084-1.84.102-2.393.102-7.051s-.018-5.21-.102-7.05c-.077-1.703-.362-2.626-.6-3.24a5.4 5.4 0 0 0-1.307-2.008 5.4 5.4 0 0 0-2.006-1.306c-.615-.239-1.539-.523-3.24-.6-1.84-.084-2.393-.101-7.053-.101zm7.804 4.993a2.095 2.095 0 1 1 4.188.001 2.095 2.095 0 0 1-4.188-.001M15.037 24a8.964 8.964 0 1 1 17.928 0 8.964 8.964 0 0 1-17.928 0m14.782 0a5.818 5.818 0 1 0-11.637 0 5.818 5.818 0 0 0 11.637 0" fill="url(#b)"/><path d="M1.153 5.39C.027 7.558.027 10.405.027 16.1v15.8c0 5.695 0 8.542 1.126 10.71a10 10 0 0 0 4.265 4.264C7.585 48 10.432 48 16.128 48h15.8c5.694 0 8.542 0 10.71-1.126a10 10 0 0 0 4.264-4.264c1.125-2.168 1.125-5.015 1.125-10.71V16.1c0-5.695 0-8.542-1.126-10.71a10 10 0 0 0-4.264-4.264C40.47 0 37.622 0 31.927 0h-15.8c-5.695 0-8.542 0-10.71 1.126A10 10 0 0 0 1.154 5.39m15.65 1.26c1.863-.084 2.457-.105 7.198-.105h-.006c4.742 0 5.335.021 7.196.106 1.859.085 3.128.38 4.24.81a8.5 8.5 0 0 1 3.091 2.014 8.6 8.6 0 0 1 2.014 3.092c.43 1.11.724 2.378.811 4.236.084 1.862.106 2.457.106 7.197s-.022 5.334-.106 7.196c-.087 1.857-.381 3.126-.81 4.236a8.6 8.6 0 0 1-2.015 3.092 8.5 8.5 0 0 1-3.09 2.014c-1.11.432-2.38.726-4.238.811-1.862.085-2.455.106-7.195.106s-5.335-.021-7.197-.106c-1.857-.085-3.126-.38-4.237-.81a8.55 8.55 0 0 1-3.09-2.015 8.55 8.55 0 0 1-2.013-3.092c-.432-1.11-.726-2.379-.811-4.237-.085-1.861-.106-2.455-.106-7.195s.022-5.336.105-7.197c.084-1.858.378-3.127.811-4.237a8.6 8.6 0 0 1 2.015-3.091 8.55 8.55 0 0 1 3.092-2.013c1.11-.432 2.378-.726 4.236-.811m6.616 3.04h-.984v-.003c-3.253.003-3.877.025-5.487.098-1.702.078-2.626.362-3.241.602a5.4 5.4 0 0 0-2.007 1.306 5.4 5.4 0 0 0-1.307 2.007c-.239.615-.523 1.539-.6 3.24-.084 1.84-.101 2.39-.101 7.052 0 4.66.017 5.214.1 7.054.078 1.701.363 2.625.601 3.24a5.4 5.4 0 0 0 1.307 2.006 5.4 5.4 0 0 0 2.007 1.305c.615.239 1.539.523 3.24.602 1.84.084 2.393.102 7.054.102 4.66 0 5.213-.018 7.052-.102 1.702-.078 2.627-.361 3.241-.602a5.4 5.4 0 0 0 2.006-1.305c.61-.61.99-1.19 1.306-2.005.239-.615.523-1.538.601-3.24.084-1.84.102-2.393.102-7.051s-.018-5.21-.102-7.05c-.077-1.703-.362-2.626-.6-3.24a5.4 5.4 0 0 0-1.307-2.008 5.4 5.4 0 0 0-2.006-1.306c-.615-.239-1.539-.523-3.24-.6-1.84-.084-2.393-.101-7.053-.101zm7.804 4.993a2.095 2.095 0 1 1 4.188.001 2.095 2.095 0 0 1-4.188-.001M15.037 24a8.964 8.964 0 1 1 17.928 0 8.964 8.964 0 0 1-17.928 0m14.782 0a5.818 5.818 0 1 0-11.637 0 5.818 5.818 0 0 0 11.637 0" fill="#107556"/></g><defs><radialGradient id="b" cx="0" cy="0" r="1" gradientUnits="userSpaceOnUse" gradientTransform="matrix(0 -47.5715 44.2453 0 12.777 51.697)"><stop stop-color="#FD5"/><stop offset=".1" stop-color="#FD5"/><stop offset=".5" stop-color="#FF543E"/><stop offset="1" stop-color="#C837AB"/></radialGradient><clipPath id="a"><path fill="#fff" d="M0 0h48v48H0z"/></clipPath></defs></svg>