<svg width="16" height="16" viewBox="0 0 16 16" fill="none" xmlns="http://www.w3.org/2000/svg"><g clip-path="url(#a)"><path d="m13.787 0.779 -0.014 -0.005 -1.81 -0.601a3.36 3.36 0 0 0 -1.933 -0.053L6.311 1.201a2.027 2.027 0 0 1 -1.365 -0.119L4.613 0.926A3.333 3.333 0 0 0 0 4v8.05a3.344 3.344 0 0 0 2.4 3.2l1.911 0.601c0.323 0.1 0.659 0.15 0.997 0.149q0.453 0.005 0.891 -0.119l3.867 -1.068a2.027 2.027 0 0 1 1.078 0.007l1.562 0.451A2.667 2.667 0 0 0 16 12.681V3.918A3.339 3.339 0 0 0 13.787 0.779M2.784 13.973a2.005 2.005 0 0 1 -1.451 -1.922V4a1.973 1.973 0 0 1 0.891 -1.666 2.027 2.027 0 0 1 1.109 -0.334c0.254 0 0.507 0.05 0.741 0.148 0 0 0.497 0.213 0.592 0.246v12.167zm3.216 0.578V2.587q0.341 -0.018 0.67 -0.105l3.33 -0.967v11.952zm8.667 -1.871a1.333 1.333 0 0 1 -1.621 1.302l-1.712 -0.482V1.383l2.013 0.653a2.005 2.005 0 0 1 1.321 1.882z" fill="#000"/></g><defs><clipPath id="a"><path fill="#fff" d="M0 0h16v16H0z"/></clipPath></defs></svg>