<svg xmlns="http://www.w3.org/2000/svg" width="24" height="24" viewBox="0 0 24 24" fill="none">
  <g clip-path="url(#clip0_709_4377)">
    <path d="M18.4998 24.0001H13.0338C11.1606 24.0329 9.30116 23.6754 7.57368 22.9504C5.84621 22.2254 4.28854 21.1489 2.99976 19.7891C1.90927 18.597 1.08302 17.1879 0.575151 15.6541C0.0672827 14.1203 -0.110736 12.4965 0.0527627 10.8891C0.300851 8.27379 1.39867 5.81165 3.17835 3.87919C4.95803 1.94673 7.32163 0.650308 9.90776 0.188148C11.6067 -0.126982 13.3545 -0.0599384 15.0244 0.384414C16.6942 0.828767 18.2441 1.63928 19.5618 2.75715C20.9567 3.92975 22.0771 5.39433 22.844 7.04743C23.6108 8.70053 24.0054 10.5018 23.9998 12.3241V18.5001C23.9979 19.9583 23.4179 21.3561 22.3868 22.3872C21.3558 23.4182 19.9579 23.9983 18.4998 24.0001ZM12.0298 3.00015C9.78427 2.99821 7.61876 3.8338 5.95659 5.34359C4.29442 6.85338 3.25509 8.9288 3.04176 11.1641C2.91942 12.3565 3.05038 13.5613 3.42606 14.6996C3.80174 15.8378 4.41367 16.8839 5.22176 17.7691C6.22889 18.8197 7.44341 19.6494 8.78823 20.2056C10.1331 20.7618 11.5788 21.0324 13.0338 21.0001H18.4998C19.1628 21.0001 19.7987 20.7368 20.2675 20.2679C20.7364 19.7991 20.9998 19.1632 20.9998 18.5001V12.3241C21.0044 10.94 20.7054 9.5716 20.1238 8.3155C19.5422 7.0594 18.6922 5.94613 17.6338 5.05415C16.0692 3.72529 14.0825 2.99712 12.0298 3.00015ZM11.9998 6.00015C11.6019 6.00015 11.2204 6.15818 10.9391 6.43949C10.6578 6.72079 10.4998 7.10232 10.4998 7.50015C10.4998 7.89797 10.6578 8.2795 10.9391 8.56081C11.2204 8.84211 11.6019 9.00015 11.9998 9.00015C12.3976 9.00015 12.7791 8.84211 13.0604 8.56081C13.3417 8.2795 13.4998 7.89797 13.4998 7.50015C13.4998 7.10232 13.3417 6.72079 13.0604 6.43949C12.7791 6.15818 12.3976 6.00015 11.9998 6.00015ZM12.4998 19.0001C12.1019 19.0001 11.7204 18.8421 11.4391 18.5608C11.1578 18.2795 10.9998 17.898 10.9998 17.5001V13.0001H10.4998C10.1019 13.0001 9.72041 12.8421 9.4391 12.5608C9.1578 12.2795 8.99976 11.898 8.99976 11.5001C8.99976 11.1023 9.1578 10.7208 9.4391 10.4395C9.72041 10.1582 10.1019 10.0001 10.4998 10.0001H11.4998C12.1628 10.0001 12.7987 10.2635 13.2675 10.7324C13.7364 11.2012 13.9998 11.8371 13.9998 12.5001V17.5001C13.9998 17.898 13.8417 18.2795 13.5604 18.5608C13.2791 18.8421 12.8976 19.0001 12.4998 19.0001Z" fill="#128260"/>
  </g>
  <defs>
    <clipPath id="clip0_709_4377">
      <rect width="24" height="24" fill="white"/>
    </clipPath>
  </defs>
</svg>