<svg xmlns="http://www.w3.org/2000/svg" width="20" height="24" viewBox="0 0 20 24" fill="none">
  <path d="M15 12.5C15 12.8978 14.842 13.2794 14.5607 13.5607C14.2794 13.842 13.8978 14 13.5 14H6.5C6.10218 14 5.72064 13.842 5.43934 13.5607C5.15804 13.2794 5 12.8978 5 12.5C5 12.1022 5.15804 11.7207 5.43934 11.4394C5.72064 11.1581 6.10218 11 6.5 11H13.5C13.8978 11 14.2794 11.1581 14.5607 11.4394C14.842 11.7207 15 12.1022 15 12.5ZM10.5 16H6.5C6.10218 16 5.72064 16.1581 5.43934 16.4394C5.15804 16.7207 5 17.1022 5 17.5C5 17.8978 5.15804 18.2794 5.43934 18.5607C5.72064 18.842 6.10218 19 6.5 19H10.5C10.8978 19 11.2794 18.842 11.5607 18.5607C11.842 18.2794 12 17.8978 12 17.5C12 17.1022 11.842 16.7207 11.5607 16.4394C11.2794 16.1581 10.8978 16 10.5 16ZM20 8.15702V18.5C19.9984 19.9582 19.4184 21.3563 18.3873 22.3874C17.3562 23.4185 15.9582 23.9984 14.5 24H5.5C4.0418 23.9984 2.64377 23.4185 1.61267 22.3874C0.581561 21.3563 0.00158817 19.9582 0 18.5V5.50002C0.00158817 4.04182 0.581561 2.6438 1.61267 1.61269C2.64377 0.581583 4.0418 0.00161038 5.5 2.22109e-05H11.843C12.5656 -0.00203834 13.2814 0.139292 13.9489 0.415827C14.6165 0.692361 15.2226 1.0986 15.732 1.61102L18.389 4.26802C18.9013 4.77754 19.3075 5.38361 19.584 6.05116C19.8606 6.7187 20.0019 7.43447 20 8.15702ZM17 18.5V9.00002H13C12.4696 9.00002 11.9609 8.78931 11.5858 8.41424C11.2107 8.03916 11 7.53046 11 7.00002V3.00002H5.5C4.83696 3.00002 4.20107 3.26341 3.73223 3.73226C3.26339 4.2011 3 4.83698 3 5.50002V18.5C3 19.1631 3.26339 19.7989 3.73223 20.2678C4.20107 20.7366 4.83696 21 5.5 21H14.5C15.163 21 15.7989 20.7366 16.2678 20.2678C16.7366 19.7989 17 19.1631 17 18.5Z" fill="#128260"/>
</svg>