<svg width="48" height="48" viewBox="0 0 48 48" fill="none"><path fillRule="evenodd" clipRule="evenodd" d="M1.126 5.39C0 7.558 0 10.405 0 16.1v15.8c0 5.695 0 8.542 1.126 10.71a10 10 0 0 0 4.264 4.264C7.558 48 10.405 48 16.1 48h15.8c5.695 0 8.542 0 10.71-1.126a10 10 0 0 0 4.264-4.264C48 40.442 48 37.595 48 31.9V16.1c0-5.695 0-8.542-1.126-10.71a10 10 0 0 0-4.264-4.264C40.442 0 37.595 0 31.9 0H16.1C10.405 0 7.558 0 5.39 1.126A10 10 0 0 0 1.126 5.39m35.5 6.19a16.96 16.96 0 0 0-11.232-4.987l-.854-.021c-9.416 0-17.08 7.66-17.084 17.074a17.04 17.04 0 0 0 2.28 8.536l-2.423 8.849 9.057-2.375a17.1 17.1 0 0 0 8.164 2.078h.007c9.415 0 17.08-7.66 17.083-17.075a16.97 16.97 0 0 0-4.999-12.08M17.307 35.872l-.519-.308-5.374 1.409 1.435-5.237-.338-.537a14.15 14.15 0 0 1-2.171-7.553c.003-7.825 6.373-14.191 14.205-14.191a14.1 14.1 0 0 1 10.039 4.162 14.1 14.1 0 0 1 4.155 10.04c-.003 7.826-6.373 14.193-14.2 14.193h-.005a14.2 14.2 0 0 1-7.227-1.978m15.255-8.537c.297.143.498.24.584.384.107.178.107 1.032-.249 2.029-.355.996-2.06 1.906-2.88 2.028-.736.11-1.667.156-2.69-.169a25 25 0 0 1-2.433-.898c-4.002-1.728-6.706-5.604-7.217-6.337l-.075-.106-.004-.005c-.227-.303-1.74-2.32-1.74-4.408 0-1.966.967-2.996 1.411-3.47l.084-.09c.391-.427.854-.534 1.138-.534.285 0 .57.003.818.015q.046.003.096.002c.249-.002.559-.004.865.73.117.283.29.702.47 1.144.368.894.774 1.882.846 2.025.107.213.178.463.035.747q-.03.065-.06.122a2.4 2.4 0 0 1-.366.59q-.108.126-.219.262a7 7 0 0 1-.422.486c-.213.212-.436.443-.187.87.25.427 1.106 1.825 2.375 2.956a11 11 0 0 0 3.15 1.99q.178.076.283.128c.426.213.675.177.924-.107.25-.285 1.067-1.246 1.352-1.673.284-.427.57-.356.96-.214.392.143 2.49 1.175 2.917 1.388z" fill="#107556"/></svg>